<svg width="26" height="26" viewBox="0 0 26 26" fill="none" xmlns="http://www.w3.org/2000/svg">
<path fill-rule="evenodd" clip-rule="evenodd" d="M12.5967 3.14941C13.0315 3.14941 13.3839 3.50189 13.3839 3.93669V11.8094H21.2567C21.6915 11.8094 22.0439 12.1619 22.0439 12.5967C22.0439 13.0315 21.6915 13.3839 21.2567 13.3839H13.3839V21.2567C13.3839 21.6915 13.0315 22.0439 12.5967 22.0439C12.1619 22.0439 11.8094 21.6915 11.8094 21.2567V13.3839H3.93669C3.50189 13.3839 3.14941 13.0315 3.14941 12.5967C3.14941 12.1619 3.50189 11.8094 3.93669 11.8094H11.8094V3.93669C11.8094 3.50189 12.1619 3.14941 12.5967 3.14941Z" fill="#186DF7" stroke="#186DF7" stroke-width="2" stroke-linecap="round" stroke-linejoin="round"/>
</svg>
