<svg width="26" height="27" viewBox="0 0 26 27" fill="none" xmlns="http://www.w3.org/2000/svg">
<path fill-rule="evenodd" clip-rule="evenodd" d="M13 5.87512C8.51269 5.87512 4.875 9.5128 4.875 14.0001C4.875 18.4874 8.51269 22.1251 13 22.1251C17.4873 22.1251 21.125 18.4874 21.125 14.0001C21.125 12.7888 20.9737 12.5306 20.5 11.5C20.3126 11.0923 20.4912 10.6098 20.8989 10.4224C21.3066 10.235 21.7891 10.4136 21.9765 10.8213C22.5 12 22.75 12.5498 22.75 14.0001C22.75 19.3849 18.3848 23.7501 13 23.7501C7.61522 23.7501 3.25 19.3849 3.25 14.0001C3.25 8.61534 7.61522 4.25012 13 4.25012V5.87512Z" fill="#186DF7"/>
<path d="M13 8.25776V1.86748C13 1.52304 13.4017 1.33488 13.6663 1.55539L17.5005 4.75053C17.6954 4.91294 17.6954 5.21229 17.5005 5.37471L13.6663 8.56985C13.4017 8.79035 13 8.60219 13 8.25776Z" fill="#186DF7"/>
<path fill-rule="evenodd" clip-rule="evenodd" d="M13 5.87512C8.51269 5.87512 4.875 9.5128 4.875 14.0001C4.875 18.4874 8.51269 22.1251 13 22.1251C17.4873 22.1251 21.125 18.4874 21.125 14.0001C21.125 12.7888 20.9737 12.5306 20.5 11.5C20.3126 11.0923 20.4912 10.6098 20.8989 10.4224C21.3066 10.235 21.7891 10.4136 21.9765 10.8213C22.5 12 22.75 12.5498 22.75 14.0001C22.75 19.3849 18.3848 23.7501 13 23.7501C7.61522 23.7501 3.25 19.3849 3.25 14.0001C3.25 8.61534 7.61522 4.25012 13 4.25012V5.87512Z" stroke="#186DF7" stroke-width="2"/>
<path d="M13 8.25776V1.86748C13 1.52304 13.4017 1.33488 13.6663 1.55539L17.5005 4.75053C17.6954 4.91294 17.6954 5.21229 17.5005 5.37471L13.6663 8.56985C13.4017 8.79035 13 8.60219 13 8.25776Z" stroke="#186DF7" stroke-width="2"/>
</svg>
