<svg width="22" height="22" viewBox="0 0 22 22" fill="none" xmlns="http://www.w3.org/2000/svg">
<path d="M11 16.5C14.0376 16.5 16.5 14.0376 16.5 11C16.5 7.96243 14.0376 5.5 11 5.5C7.96243 5.5 5.5 7.96243 5.5 11C5.5 14.0376 7.96243 16.5 11 16.5Z" fill="#186DF7"/>
<path d="M11 0C11.3797 0 11.6875 0.307804 11.6875 0.6875V3.4375C11.6875 3.8172 11.3797 4.125 11 4.125C10.6203 4.125 10.3125 3.8172 10.3125 3.4375V0.6875C10.3125 0.307804 10.6203 0 11 0Z" fill="#186DF7"/>
<path d="M11 17.875C11.3797 17.875 11.6875 18.1828 11.6875 18.5625V21.3125C11.6875 21.6922 11.3797 22 11 22C10.6203 22 10.3125 21.6922 10.3125 21.3125V18.5625C10.3125 18.1828 10.6203 17.875 11 17.875Z" fill="#186DF7"/>
<path d="M22 11C22 11.3797 21.6922 11.6875 21.3125 11.6875H18.5625C18.1828 11.6875 17.875 11.3797 17.875 11C17.875 10.6203 18.1828 10.3125 18.5625 10.3125H21.3125C21.6922 10.3125 22 10.6203 22 11Z" fill="#186DF7"/>
<path d="M4.125 11C4.125 11.3797 3.8172 11.6875 3.4375 11.6875H0.6875C0.307804 11.6875 -1.6597e-08 11.3797 0 11C1.6597e-08 10.6203 0.307804 10.3125 0.6875 10.3125H3.4375C3.8172 10.3125 4.125 10.6203 4.125 11Z" fill="#186DF7"/>
<path d="M18.7782 3.22187C19.0467 3.49035 19.0467 3.92566 18.7782 4.19414L16.8336 6.13868C16.5651 6.40717 16.1298 6.40717 15.8614 6.13868C15.5929 5.8702 15.5929 5.4349 15.8614 5.16641L17.8059 3.22187C18.0744 2.95338 18.5097 2.95338 18.7782 3.22187Z" fill="#186DF7"/>
<path d="M6.13864 15.8614C6.40712 16.1299 6.40712 16.5652 6.13864 16.8337L4.19409 18.7782C3.92561 19.0467 3.49031 19.0467 3.22182 18.7782C2.95334 18.5097 2.95334 18.0744 3.22182 17.8059L5.16637 15.8614C5.43485 15.5929 5.87015 15.5929 6.13864 15.8614Z" fill="#186DF7"/>
<path d="M18.7782 18.7782C18.5097 19.0467 18.0744 19.0467 17.8059 18.7782L15.8614 16.8337C15.5929 16.5652 15.5929 16.1299 15.8614 15.8614C16.1298 15.5929 16.5651 15.5929 16.8336 15.8614L18.7782 17.806C19.0467 18.0744 19.0467 18.5097 18.7782 18.7782Z" fill="#186DF7"/>
<path d="M6.13864 6.1387C5.87015 6.40719 5.43485 6.40719 5.16637 6.1387L3.22182 4.19416C2.95334 3.92567 2.95334 3.49037 3.22183 3.22188C3.49031 2.9534 3.92561 2.9534 4.1941 3.22189L6.13864 5.16643C6.40713 5.43491 6.40713 5.87022 6.13864 6.1387Z" fill="#186DF7"/>
</svg>
